<svg xmlns="http://www.w3.org/2000/svg" viewBox="0 0 187.82 19.84"><defs><style>.cls-1{fill:#101820;}.cls-2{fill:#00bed6;}.cls-3{fill:#fff;}</style></defs><title>VE_LogoText_</title><g id="Layer_2" data-name="Layer 2"><g id="Key_aseets"><g id="VE_LogoText_"><g id="text"><path class="cls-1" d="M5.68,5.61h.89l6.11,13,6.14-13h.9l-6.62,14h-.84Z"/><path class="cls-1" d="M20.56,2.07a.62.62,0,0,1,1.23,0,.62.62,0,1,1-1.23,0Zm.19,3.54h.85v14h-.85Z"/><path class="cls-1" d="M22.63,5.61h.9l6.11,13,6.14-13h.89l-6.61,14h-.84Z"/><path class="cls-1" d="M37.51,2.07a.62.62,0,0,1,1.24,0,.62.62,0,0,1-1.24,0Zm.2,3.54h.84v14h-.84Z"/><path class="cls-1" d="M47.52,19.84A7.23,7.23,0,1,1,53.88,9.39V0h.84V12.61A7.2,7.2,0,0,1,47.52,19.84Zm-6.39-7.23a6.39,6.39,0,1,0,12.78,0,6.39,6.39,0,1,0-12.78,0Z"/><path class="cls-2" d="M63.38,5.38a7.11,7.11,0,0,1,7.23,7,9.21,9.21,0,0,1-.08,1.26H59.21a4,4,0,0,0,4.17,3.56,4.43,4.43,0,0,0,3.36-1.4l3.28,0a7.34,7.34,0,0,1-6.56,4,7.16,7.16,0,0,1-7.2-7.2A7.17,7.17,0,0,1,63.38,5.38Zm4.29,6A4.41,4.41,0,0,0,63.46,8a4.31,4.31,0,0,0-4.25,3.34Z"/><path class="cls-2" d="M72,12.61a7.21,7.21,0,0,1,7.23-7.23A7.07,7.07,0,0,1,85.91,10H83a4.38,4.38,0,0,0-3.7-2,4.47,4.47,0,0,0-4.51,4.57,4.49,4.49,0,0,0,4.51,4.57,4.35,4.35,0,0,0,3.65-1.91h3a7.08,7.08,0,0,1-6.67,4.57A7.21,7.21,0,0,1,72,12.61Z"/><path class="cls-2" d="M101.8,12.61a7.23,7.23,0,1,1-7.23-7.23A7.21,7.21,0,0,1,101.8,12.61Zm-11.71,0a4.49,4.49,0,1,0,9,0,4.49,4.49,0,1,0-9,0Z"/><path class="cls-2" d="M115.68,19.62h-2.75V12.25c0-2.86-1.23-4.21-3.42-4.21s-3.42,1.35-3.42,4.21v7.37h-2.74V12.25c0-4.71,2.57-6.87,6.16-6.87s6.17,2.16,6.17,6.87Z"/><path class="cls-2" d="M131.68,12.61a7.23,7.23,0,1,1-7.23-7.23A7.21,7.21,0,0,1,131.68,12.61Zm-11.71,0a4.49,4.49,0,0,0,4.51,4.57,4.44,4.44,0,0,0,4.45-4.57A4.42,4.42,0,0,0,124.48,8,4.47,4.47,0,0,0,120,12.61Z"/><path class="cls-2" d="M154.8,12.25v7.37h-2.75V12.25c0-2.86-1.2-4.21-3.33-4.21s-3.33,1.35-3.33,4.21v7.37h-2.75V12.25c0-2.86-1.21-4.21-3.34-4.21S136,9.39,136,12.25v7.37h-2.75V12.25c0-4.71,2.58-6.87,6.08-6.87A5,5,0,0,1,144,8a5,5,0,0,1,4.71-2.61C152.22,5.38,154.8,7.54,154.8,12.25Z"/><path class="cls-2" d="M156.76,2a1.67,1.67,0,1,1,3.34,0,1.67,1.67,0,1,1-3.34,0Zm.31,3.62h2.75v14h-2.75Z"/><path class="cls-2" d="M161.64,12.61a7.21,7.21,0,0,1,7.23-7.23A7.08,7.08,0,0,1,175.54,10H172.6a4.4,4.4,0,0,0-3.7-2,4.47,4.47,0,0,0-4.51,4.57,4.49,4.49,0,0,0,4.51,4.57,4.32,4.32,0,0,0,3.64-1.91h3a7.09,7.09,0,0,1-6.67,4.57A7.21,7.21,0,0,1,161.64,12.61Z"/><path class="cls-2" d="M176.83,15.41h2.63c0,1.21,1.27,2,2.92,2s2.69-.76,2.69-1.85c0-3.17-8-.76-8-6.2,0-2.35,2.3-3.95,5.19-3.95s5.13,1.51,5.13,4.2h-2.64c0-1.09-1.17-1.76-2.55-1.76s-2.38.67-2.38,1.71c0,2.8,7.93.64,8,6.05,0,2.86-2.36,4.26-5.5,4.26C179.44,19.84,176.83,18.27,176.83,15.41Z"/></g><path id="colon_B" class="cls-3" d="M0,9A1.65,1.65,0,0,1,1.68,7.34a1.69,1.69,0,0,1,0,3.37A1.65,1.65,0,0,1,0,9Z"/><path id="colon_A" class="cls-3" d="M0,16.24a1.65,1.65,0,0,1,1.68-1.69,1.69,1.69,0,0,1,0,3.37A1.65,1.65,0,0,1,0,16.24Z"/></g></g></g></svg>